<svg width="148" height="57" viewBox="0 0 148 57" fill="none" xmlns="http://www.w3.org/2000/svg">
<path d="M26.832 34.936C26.832 37.432 25.984 39.608 24.288 41.464C22.624 43.288 20 44.2 16.416 44.2H0V38.728H3.36V18.472H0V13H16.224C19.072 13 21.36 13.672 23.088 15.016C24.848 16.328 25.728 18.088 25.728 20.296C25.728 21.928 25.232 23.352 24.24 24.568C23.248 25.784 21.856 26.536 20.064 26.824V27.016C22.304 27.336 23.984 28.216 25.104 29.656C26.256 31.096 26.832 32.856 26.832 34.936ZM18.816 21.976C18.816 20.568 18.384 19.64 17.52 19.192C16.688 18.712 15.696 18.472 14.544 18.472H9.792V25.768H14.064C15.888 25.768 17.136 25.4 17.808 24.664C18.48 23.928 18.816 23.032 18.816 21.976ZM19.92 34.696C19.92 32.072 18.336 30.76 15.168 30.76H9.792V38.728H14.736C18.192 38.728 19.92 37.384 19.92 34.696Z" fill="#F5F5EA"/>
<path d="M43.0594 22.264C43.6674 22.264 44.3394 22.36 45.0754 22.552C45.8434 22.712 46.5954 23.016 47.3314 23.464L48.2914 31.048L43.5874 31.576L42.7714 27.88C42.1314 27.496 41.5714 27.304 41.0914 27.304C40.3874 27.304 39.7634 27.576 39.2194 28.12C38.7074 28.664 38.4514 29.464 38.4514 30.52V39.544H42.2914V44.2H29.3794V39.544H32.2594V27.256H29.1394V22.552H37.9714V26.68C38.3234 25.432 38.8834 24.392 39.6514 23.56C40.4514 22.696 41.5874 22.264 43.0594 22.264Z" fill="#F5F5EA"/>
<path d="M71.3989 37.384C71.2389 39.304 70.2949 41 68.5669 42.472C66.8389 43.944 64.4229 44.68 61.3189 44.68C58.0869 44.68 55.4149 43.768 53.3029 41.944C51.2229 40.12 50.1829 37.4 50.1829 33.784C50.1829 30.456 51.1269 27.688 53.0149 25.48C54.9349 23.24 57.6069 22.12 61.0309 22.12C64.0389 22.12 66.4709 22.984 68.3269 24.712C70.2149 26.44 71.1749 28.712 71.2069 31.528C71.2069 32.584 71.0949 33.624 70.8709 34.648H56.6629C57.0149 38.072 58.7109 39.784 61.7509 39.784C63.4149 39.784 64.5349 39.384 65.1109 38.584C65.7189 37.784 66.0869 37.064 66.2149 36.424L71.3989 37.384ZM64.8229 31.048C64.9509 29.96 64.7109 28.936 64.1029 27.976C63.5269 27.016 62.5029 26.536 61.0309 26.536C59.7509 26.536 58.7589 26.952 58.0549 27.784C57.3509 28.616 56.9029 29.704 56.7109 31.048H64.8229Z" fill="#F5F5EA"/>
<path d="M100.266 44.2H88.314V39.544H91.194V32.008C91.194 30.152 90.874 28.824 90.234 28.024C89.626 27.224 88.714 26.824 87.498 26.824C86.026 26.824 84.89 27.288 84.09 28.216C83.29 29.112 82.874 30.296 82.842 31.768V39.544H85.722V44.2H73.77V39.544H76.65V27.256H73.53V22.552H82.842V25.864C84.282 23.368 86.602 22.12 89.802 22.12C91.85 22.12 93.626 22.728 95.13 23.944C96.634 25.16 97.386 27.048 97.386 29.608V39.544H100.266V44.2Z" fill="#F5F5EA"/>
<path d="M124.975 33.4C124.975 36.824 123.855 39.56 121.615 41.608C119.375 43.656 116.527 44.68 113.071 44.68C109.743 44.68 107.023 43.72 104.911 41.8C102.831 39.848 101.791 37.128 101.791 33.64C101.791 30.472 102.751 27.752 104.671 25.48C106.591 23.208 109.167 22.552 113.071 22.552C116.975 22.552 120.207 23.208 122.095 25.48C124.015 27.72 124.975 30.36 124.975 33.4ZM118.591 33.208C118.591 31 118.079 29.384 117.055 28.36C116.031 27.336 114.783 26.824 113.311 26.824C111.711 26.824 110.447 27.4 109.519 28.552C108.623 29.672 108.175 31.256 108.175 33.304C108.175 35.16 108.591 36.728 109.423 38.008C110.287 39.288 111.567 39.928 113.263 39.928C114.863 39.928 116.143 39.336 117.103 38.152C118.095 36.936 118.591 35.288 118.591 33.208Z" fill="#F5F5EA"/>
<path d="M120.859 40.0736L122.015 42.6375L113.993 45.9729L122.015 49.2587L120.859 51.8723L111 47.566V44.3799L120.859 40.0736Z" fill="#9FA682"/>
<path d="M130.91 34L134.004 34.697L131.061 45.8485L128.119 57L125 56.2781L130.91 34Z" fill="#9FA682"/>
<path d="M138.141 40.0736L148 44.3799V47.566L138.141 51.8723L136.985 49.2587L145.007 45.9729L136.985 42.6375L138.141 40.0736Z" fill="#9FA682"/>
</svg>
