<svg width="50" height="33" viewBox="0 0 50 33" fill="none" xmlns="http://www.w3.org/2000/svg">
<path d="M14.2166 9.60411L14.0136 9.14958L13.5582 9.35056L1.01419 14.8866L0.716064 15.0181V15.344V19.44V19.7659L1.01419 19.8974L13.5582 25.4334L14.0169 25.6359L14.218 25.1766L15.69 21.8166L15.8949 21.3491L15.4232 21.154L6.32337 17.3885L15.4257 13.565L15.8971 13.367L15.6886 12.9001L14.2166 9.60411ZM26.6605 1.51247L26.1888 1.40509L26.066 1.87302L18.546 30.513L18.4155 31.0099L18.9157 31.1269L22.8837 32.0549L23.3582 32.1658L23.4813 31.6943L30.9693 3.02234L31.0997 2.52302L30.5965 2.40847L26.6605 1.51247ZM35.9524 9.35056L35.497 9.14958L35.294 9.60411L33.822 12.9001L33.6135 13.367L34.0849 13.565L43.1873 17.3885L34.0874 21.154L33.6158 21.3491L33.8206 21.8166L35.2926 25.1766L35.4938 25.6359L35.9524 25.4334L48.4964 19.8974L48.7946 19.7659V19.44V15.344V15.0181L48.4964 14.8866L35.9524 9.35056Z" fill="#8B9469" stroke="black"/>
</svg>
