<svg width="54" height="54" viewBox="0 0 54 54" fill="none" xmlns="http://www.w3.org/2000/svg">
<path d="M42.75 6.75H11.25C8.76375 6.75 6.75 8.76375 6.75 11.25V42.75C6.75 45.2363 8.76375 47.25 11.25 47.25H42.75C45.2363 47.25 47.25 45.2363 47.25 42.75V11.25C47.25 8.76375 45.2363 6.75 42.75 6.75ZM20.25 38.25H14.5733V22.5H20.25V38.25ZM17.3115 19.6133C15.5768 19.6133 14.418 18.4568 14.418 16.9133C14.418 15.3698 15.5745 14.2133 17.5028 14.2133C19.2375 14.2133 20.3963 15.3698 20.3963 16.9133C20.3963 18.4568 19.2398 19.6133 17.3115 19.6133ZM40.5 38.25H35.0055V29.6415C35.0055 27.261 33.5408 26.712 32.9918 26.712C32.4428 26.712 30.6113 27.0788 30.6113 29.6415C30.6113 30.0083 30.6113 38.25 30.6113 38.25H24.9345V22.5H30.6113V24.6983C31.3425 23.4158 32.8073 22.5 35.5545 22.5C38.3018 22.5 40.5 24.6983 40.5 29.6415V38.25Z" fill="#DBDBCD"/>
</svg>
