<svg width="54" height="54" viewBox="0 0 54 54" fill="none" xmlns="http://www.w3.org/2000/svg">
<path d="M18 6.75C11.7878 6.75 6.75 11.7878 6.75 18V36C6.75 42.2123 11.7878 47.25 18 47.25H36C42.2123 47.25 47.25 42.2123 47.25 36V18C47.25 11.7878 42.2123 6.75 36 6.75H18ZM40.5 11.25C41.742 11.25 42.75 12.258 42.75 13.5C42.75 14.742 41.742 15.75 40.5 15.75C39.258 15.75 38.25 14.742 38.25 13.5C38.25 12.258 39.258 11.25 40.5 11.25ZM27 15.75C33.2123 15.75 38.25 20.7878 38.25 27C38.25 33.2123 33.2123 38.25 27 38.25C20.7878 38.25 15.75 33.2123 15.75 27C15.75 20.7878 20.7878 15.75 27 15.75ZM27 20.25C23.2721 20.25 20.25 23.2721 20.25 27C20.25 30.7279 23.2721 33.75 27 33.75C30.7279 33.75 33.75 30.7279 33.75 27C33.75 23.2721 30.7279 20.25 27 20.25Z" fill="#DBDBCD"/>
</svg>
