<svg width="54" height="54" viewBox="0 0 54 54" fill="none" xmlns="http://www.w3.org/2000/svg">
<path fill-rule="evenodd" clip-rule="evenodd" d="M27 6.75C15.8137 6.75 6.75 15.8137 6.75 27C6.75 35.9451 12.5508 43.5388 20.5994 46.2151C21.6145 46.3997 21.9836 45.78 21.9836 45.2395C21.9836 44.7583 21.9639 43.4861 21.9573 41.7986C16.3213 43.0181 15.1348 39.0828 15.1348 39.0828C14.2119 36.7427 12.887 36.1165 12.887 36.1165C11.0479 34.864 13.0254 34.8904 13.0254 34.8904C15.0557 35.0354 16.1235 36.9734 16.1235 36.9734C17.9297 40.0716 20.863 39.1751 22.0166 38.6609C22.2012 37.3492 22.7285 36.4593 23.302 35.9517C18.8064 35.4441 14.0801 33.7039 14.0801 25.9453C14.0801 23.7305 14.8711 21.9244 16.1631 20.5071C15.9588 19.9995 15.26 17.9363 16.3609 15.148C16.3609 15.148 18.0615 14.6075 21.9309 17.2244C23.5459 16.7762 25.2796 16.552 27 16.5454C28.7205 16.552 30.4541 16.7762 32.0691 17.2244C35.9385 14.6075 37.6326 15.148 37.6326 15.148C38.74 17.9363 38.0479 19.9995 37.837 20.5071C39.1355 21.9243 39.9134 23.7305 39.9134 25.9453C39.9134 33.7237 35.1805 35.4309 30.6717 35.9385C31.3968 36.5582 32.0428 37.7974 32.0428 39.6827C32.0428 42.3919 32.023 44.5738 32.023 45.2395C32.023 45.7801 32.3855 46.4129 33.4139 46.2151C41.4559 43.5323 47.2501 35.9451 47.2501 27.0001C47.2501 15.8138 38.1863 6.75 27 6.75Z" fill="#DBDBCD"/>
</svg>
