<svg width="148" height="44" viewBox="0 0 148 44" fill="none" xmlns="http://www.w3.org/2000/svg">
<path d="M26.832 21.936C26.832 24.432 25.984 26.608 24.288 28.464C22.624 30.288 20 31.2 16.416 31.2H0V25.728H3.36V5.472H0V0H16.224C19.072 0 21.36 0.672 23.088 2.016C24.848 3.328 25.728 5.088 25.728 7.296C25.728 8.928 25.232 10.352 24.24 11.568C23.248 12.784 21.856 13.536 20.064 13.824V14.016C22.304 14.336 23.984 15.216 25.104 16.656C26.256 18.096 26.832 19.856 26.832 21.936ZM18.816 8.976C18.816 7.568 18.384 6.64 17.52 6.192C16.688 5.712 15.696 5.472 14.544 5.472H9.792V12.768H14.064C15.888 12.768 17.136 12.4 17.808 11.664C18.48 10.928 18.816 10.032 18.816 8.976ZM19.92 21.696C19.92 19.072 18.336 17.76 15.168 17.76H9.792V25.728H14.736C18.192 25.728 19.92 24.384 19.92 21.696Z" fill="#F5F5EA"/>
<path d="M43.0594 9.264C43.6674 9.264 44.3394 9.36 45.0754 9.552C45.8434 9.712 46.5954 10.016 47.3314 10.464L48.2914 18.048L43.5874 18.576L42.7714 14.88C42.1314 14.496 41.5714 14.304 41.0914 14.304C40.3874 14.304 39.7634 14.576 39.2194 15.12C38.7074 15.664 38.4514 16.464 38.4514 17.52V26.544H42.2914V31.2H29.3794V26.544H32.2594V14.256H29.1394V9.552H37.9714V13.68C38.3234 12.432 38.8834 11.392 39.6514 10.56C40.4514 9.696 41.5874 9.264 43.0594 9.264Z" fill="#F5F5EA"/>
<path d="M71.3989 24.384C71.2389 26.304 70.2949 28 68.5669 29.472C66.8389 30.944 64.4229 31.68 61.3189 31.68C58.0869 31.68 55.4149 30.768 53.3029 28.944C51.2229 27.12 50.1829 24.4 50.1829 20.784C50.1829 17.456 51.1269 14.688 53.0149 12.48C54.9349 10.24 57.6069 9.12 61.0309 9.12C64.0389 9.12 66.4709 9.984 68.3269 11.712C70.2149 13.44 71.1749 15.712 71.2069 18.528C71.2069 19.584 71.0949 20.624 70.8709 21.648H56.6629C57.0149 25.072 58.7109 26.784 61.7509 26.784C63.4149 26.784 64.5349 26.384 65.1109 25.584C65.7189 24.784 66.0869 24.064 66.2149 23.424L71.3989 24.384ZM64.8229 18.048C64.9509 16.96 64.7109 15.936 64.1029 14.976C63.5269 14.016 62.5029 13.536 61.0309 13.536C59.7509 13.536 58.7589 13.952 58.0549 14.784C57.3509 15.616 56.9029 16.704 56.7109 18.048H64.8229Z" fill="#F5F5EA"/>
<path d="M100.266 31.2H88.314V26.544H91.194V19.008C91.194 17.152 90.874 15.824 90.234 15.024C89.626 14.224 88.714 13.824 87.498 13.824C86.026 13.824 84.89 14.288 84.09 15.216C83.29 16.112 82.874 17.296 82.842 18.768V26.544H85.722V31.2H73.77V26.544H76.65V14.256H73.53V9.552H82.842V12.864C84.282 10.368 86.602 9.12 89.802 9.12C91.85 9.12 93.626 9.728 95.13 10.944C96.634 12.16 97.386 14.048 97.386 16.608V26.544H100.266V31.2Z" fill="#F5F5EA"/>
<path d="M124.975 20.4C124.975 23.824 123.855 26.56 121.615 28.608C119.375 30.656 116.527 31.68 113.071 31.68C109.743 31.68 107.023 30.72 104.911 28.8C102.831 26.848 101.791 24.128 101.791 20.64C101.791 17.472 102.751 14.752 104.671 12.48C106.591 10.208 109.503 9.072 113.407 9.072C117.311 9.072 120.207 10.208 122.095 12.48C124.015 14.72 124.975 17.36 124.975 20.4ZM118.591 20.208C118.591 18 118.079 16.384 117.055 15.36C116.031 14.336 114.783 13.824 113.311 13.824C111.711 13.824 110.447 14.4 109.519 15.552C108.623 16.672 108.175 18.256 108.175 20.304C108.175 22.16 108.591 23.728 109.423 25.008C110.287 26.288 111.567 26.928 113.263 26.928C114.863 26.928 116.143 26.336 117.103 25.152C118.095 23.936 118.591 22.288 118.591 20.208Z" fill="#F5F5EA"/>
<path d="M120.859 27.0736L122.015 29.6374L113.993 32.9729L122.015 36.2587L120.859 38.8723L111 34.566V31.3799L120.859 27.0736Z" fill="#9FA682"/>
<path d="M130.91 21L134.004 21.697L128.119 44L125 43.2781L130.91 21Z" fill="#9FA682"/>
<path d="M138.141 27.0736L148 31.3799V34.566L138.141 38.8723L136.985 36.2587L145.007 32.9729L136.985 29.6374L138.141 27.0736Z" fill="#9FA682"/>
</svg>
